<svg width="12" height="12" viewBox="0 0 12 12" fill="none" xmlns="http://www.w3.org/2000/svg">
<g id="Base Small" clip-path="url(#clip0_437_590)">
<path id="Path" fill-rule="evenodd" clip-rule="evenodd" d="M1.32803 0.168329C1.00365 -0.0785537 0.538654 -0.0538654 0.242394 0.242394C-0.0807981 0.565587 -0.0807981 1.08959 0.242394 1.41278L4.82962 6L0.242394 10.5872L0.168329 10.672C-0.0785537 10.9964 -0.0538654 11.4613 0.242394 11.7576C0.565587 12.0808 1.08959 12.0808 1.41278 11.7576L6 7.17038L10.5872 11.7576L10.672 11.8317C10.9964 12.0786 11.4613 12.0539 11.7576 11.7576C12.0808 11.4344 12.0808 10.9104 11.7576 10.5872L7.17038 6L11.7576 1.41278L11.8317 1.32803C12.0786 1.00365 12.0539 0.538654 11.7576 0.242394C11.4344 -0.0807981 10.9104 -0.0807981 10.5872 0.242394L6 4.82962L1.41278 0.242394L1.32803 0.168329Z" fill="#0066CC"/>
</g>
<defs>
<clipPath id="clip0_437_590">
<rect width="12" height="12" fill="white"/>
</clipPath>
</defs>
</svg>
